<?xml version="1.0" encoding="UTF-8" standalone="no"?>
<svg
   xmlns:dc="http://purl.org/dc/elements/1.1/"
   xmlns:cc="http://creativecommons.org/ns#"
   xmlns:rdf="http://www.w3.org/1999/02/22-rdf-syntax-ns#"
   xmlns:svg="http://www.w3.org/2000/svg"
   xmlns="http://www.w3.org/2000/svg"
   version="1.1"
   id="svg4159"
   viewBox="0 0 290 45.000001"
   height="45"
   width="290">
  <defs
     id="defs4161" />
  <metadata
     id="metadata4164">
    <rdf:RDF>
      <cc:Work
         rdf:about="">
        <dc:format>image/svg+xml</dc:format>
        <dc:type
           rdf:resource="http://purl.org/dc/dcmitype/StillImage" />
        <dc:title></dc:title>
      </cc:Work>
    </rdf:RDF>
  </metadata>
  <g
     transform="translate(0,-1007.3622)"
     id="layer1">
    <g
       id="text4838"
       style="font-style:normal;font-variant:normal;font-weight:800;font-stretch:normal;font-size:19.73010254px;line-height:125%;font-family:a_AvanteBs;-inkscape-font-specification:'a_AvanteBs Ultra-Bold';letter-spacing:0px;word-spacing:0px;fill:#3592d7;fill-opacity:1;stroke:none;stroke-width:1px;stroke-linecap:butt;stroke-linejoin:miter;stroke-opacity:1">
      <g
         transform="translate(8.3127109,0)"
         id="g4861">
        <path
           d="m 136.60361,1025.5297 c 2.41081,-0.1147 4.44309,2.0074 4.27327,4.6169 -0.0597,0.917 -0.30054,1.5615 -0.85608,2.2919 -0.51229,0.6735 -1.19524,1.2048 -1.87609,1.4595 -0.58179,0.2177 -1.54678,0.3031 -2.10178,0.1861 -0.65544,-0.1381 -1.34514,-0.5076 -1.86342,-0.9978 -0.99028,-0.9366 -1.40172,-1.8973 -1.40172,-3.277 0,-1.4124 0.41671,-2.3917 1.40014,-3.2905 0.59232,-0.5413 1.11758,-0.7945 1.93865,-0.9353 0.16354,-0.028 0.32631,-0.046 0.48703,-0.054 z m -39.022436,-0.8118 c 2.18964,-0.052 3.257026,0.3337 3.821066,1.3804 0.27774,0.5154 0.28101,1.8923 0.006,2.4819 -0.32682,0.6995 -0.81841,1.0807 -1.705826,1.3249 -0.24817,0.068 -1.04028,0.1495 -1.76046,0.1798 -1.10586,0.046 -1.32654,0.034 -1.42231,-0.082 -0.0866,-0.1042 -0.10778,-0.7455 -0.0895,-2.6981 l 0.0238,-2.5611 1.12771,-0.026 z m -46.3288,0 c 0.89012,-0.029 2.58532,0.065 3.18277,0.2099 0.88674,0.2151 1.66824,0.6319 2.31165,1.2338 0.99454,0.9303 1.39617,2.0173 1.39617,3.7751 0,1.731 -0.35882,2.7188 -1.34707,3.7071 -0.61703,0.617 -1.24178,0.9821 -2.09387,1.2243 -0.67262,0.1912 -3.86556,0.281 -4.02697,0.1132 -0.0875,-0.091 -0.11246,-1.2358 -0.11246,-5.0968 0,-4.3664 0.0172,-4.9937 0.13859,-5.0945 0.0473,-0.039 0.25448,-0.063 0.55119,-0.072 z m 33.56128,-0.1719 c 0.12109,0 0.24188,0 0.3627,0 1.61091,0.067 3.17791,0.9423 4.18378,2.4985 0.54969,0.8505 0.77092,1.6494 0.76342,2.7551 -0.004,0.5518 -0.0667,1.1302 -0.16235,1.4889 -0.47698,1.788 -1.85775,3.2358 -3.56448,3.7371 -0.30932,0.091 -0.82517,0.1434 -1.39856,0.1418 -1.00124,0 -1.71781,-0.1898 -2.51042,-0.6558 -0.94864,-0.5576 -1.93908,-1.787 -2.3259,-2.8866 -0.24604,-0.6993 -0.33985,-2.2233 -0.18294,-2.9792 0.24326,-1.1718 1.27673,-2.6239 2.36233,-3.3206 0.77551,-0.4976 1.62476,-0.7521 2.47242,-0.7808 z m -15.92496,0 c 0.57766,-0.017 1.16709,0.072 1.74462,0.2819 0.80806,0.2933 1.39086,0.6891 2.05744,1.397 0.99735,1.0592 1.42712,2.1434 1.42469,3.5922 -0.002,0.9879 -0.17351,1.7453 -0.57732,2.5374 -0.70009,1.3732 -1.84105,2.3351 -3.18277,2.6846 -0.57032,0.1485 -2.02304,0.1677 -2.59279,0.034 -1.33143,-0.3123 -2.87381,-1.6824 -3.47658,-3.0886 -0.30008,-0.7 -0.48716,-1.8177 -0.42606,-2.5405 0.23448,-2.7739 2.52554,-4.8258 5.02877,-4.8981 z m 25.39884,-1.8713 -0.0238,7.0846 c -0.0128,3.8964 -0.004,7.135 0.0198,7.1971 0.031,0.081 0.33411,0.1132 1.08258,0.1132 l 1.0398,0 0.0238,-3.0838 c 0.0151,-1.9573 0.0567,-3.0932 0.11404,-3.1099 0.0496,-0.014 1.06955,1.3629 2.26651,3.0608 l 2.176226,3.0878 1.32094,0.024 c 1.02552,0.019 1.32021,-8e-4 1.31778,-0.09 -0.002,-0.063 -0.83412,-1.2485 -1.84995,-2.6339 -1.01584,-1.3855 -1.847576,-2.5684 -1.847576,-2.6285 0,-0.062 0.189416,-0.1342 0.443476,-0.1679 1.07229,-0.1422 2.39769,-1.1481 2.95074,-2.2395 0.62924,-1.2418 0.60279,-2.9859 -0.0657,-4.3279 -0.50527,-1.0144 -1.56643,-1.7826 -2.92777,-2.12 -0.518766,-0.1286 -1.089286,-0.1563 -3.333246,-0.1608 l -2.70761,-0.01 z m -45.75545,0 -0.0229,7.205 -0.0238,7.2042 3.00143,-0.036 c 3.42658,-0.042 3.75815,-0.095 5.25763,-0.8332 2.26148,-1.1134 3.45606,-3.0178 3.62388,-5.7779 0.14262,-2.3458 -0.5408,-4.3262 -1.99488,-5.7803 -0.92403,-0.924 -1.93143,-1.4711 -3.34353,-1.8167 -0.52806,-0.1292 -1.11361,-0.1559 -3.56528,-0.16 l -2.93252,0 z m 36.34096,-0.2994 c -1.07227,0.025 -2.126,0.2675 -3.02439,0.7199 -1.60224,0.8068 -2.90557,2.1412 -3.61517,3.7007 -0.93143,2.047 -0.84303,4.5618 0.23125,6.573 1.16771,2.1862 3.21497,3.6526 5.53481,3.9644 3.74348,0.5032 7.17575,-1.8236 8.17828,-5.5435 0.27343,-1.0146 0.27748,-2.9438 0.008,-3.9383 -0.6166,-2.2746 -2.53558,-4.3556 -4.68665,-5.0834 -0.69272,-0.2343 -1.42888,-0.3637 -2.16594,-0.3896 -0.15354,-0.01 -0.30692,-0.01 -0.46011,0 z m -15.97564,0 c -1.23598,0.019 -2.47157,0.3427 -3.56765,0.9938 -0.74905,0.445 -1.91297,1.5333 -2.46133,2.3014 -1.61172,2.2575 -1.71211,5.5091 -0.24708,8.0183 0.53589,0.9178 1.82026,2.2195 2.69653,2.733 0.75236,0.4408 1.78176,0.7989 2.63159,0.9154 0.8146,0.1118 2.14935,0.034 2.95073,-0.171 1.37118,-0.3513 2.36817,-0.9574 3.45521,-2.1018 1.38974,-1.4631 2.02892,-3.1288 2.02892,-5.2901 0,-1.9604 -0.62613,-3.5844 -1.94181,-5.0383 -1.42335,-1.5729 -3.48514,-2.3915 -5.54511,-2.3607 z m 85.910346,-0.013 c -1.4587,0 -2.49252,0.3613 -3.357,1.1729 -0.26468,0.2485 -0.51285,0.4522 -0.55197,0.4522 -0.0391,0 -0.0713,-0.2804 -0.0713,-0.6225 0,-0.484 -0.0315,-0.6345 -0.14254,-0.6771 -0.0785,-0.03 -0.80653,-0.055 -1.61792,-0.055 -1.22081,0 -1.49977,0.024 -1.61713,0.1417 -0.12645,0.1265 -0.14175,0.889 -0.14175,7.0324 0,3.7895 0.0249,6.9552 0.0554,7.0347 0.0488,0.127 0.27108,0.1418 1.82778,0.1204 l 1.77155,-0.025 0.0483,-4.377 c 0.0467,-4.2005 0.0573,-4.4014 0.24787,-4.9717 0.47491,-1.4213 1.42846,-2.0703 2.87155,-1.9545 1.07539,0.086 1.82657,0.68 2.17464,1.7185 0.13865,0.4136 0.16294,1.0145 0.20511,5.0272 l 0.0483,4.5575 1.75968,0 1.75967,0 0,-5.1444 c 0,-5.759 0.009,-5.668 -0.66206,-6.9484 -0.84746,-1.618 -2.45169,-2.4827 -4.60825,-2.4827 z m -41.70392,0 c -1.3256,0 -2.29066,0.355 -3.18119,1.1689 -0.27447,0.2509 -0.52332,0.4562 -0.55356,0.4562 -0.0302,0 -0.0554,-0.2559 -0.0554,-0.5686 0,-0.3219 -0.0472,-0.6158 -0.1085,-0.6772 -0.0753,-0.075 -0.55397,-0.1084 -1.57277,-0.1084 -1.21112,0 -1.48876,0.024 -1.60604,0.1417 -0.12645,0.1265 -0.14175,0.889 -0.14175,7.0324 0,3.7895 0.0249,6.9551 0.0554,7.0347 0.0487,0.127 0.26634,0.1419 1.78185,0.1204 l 1.7272,-0.025 0.0507,-4.4221 c 0.0435,-3.8266 0.0713,-4.4953 0.20669,-4.9638 0.23205,-0.8031 0.66038,-1.3946 1.24096,-1.713 0.42407,-0.2325 0.58092,-0.2668 1.20928,-0.2685 0.57393,0 0.79886,0.039 1.09682,0.1972 0.4961,0.2641 0.88322,0.7497 1.13167,1.4184 0.1988,0.5351 0.20355,0.6367 0.22808,4.9686 0.0138,2.4321 0.0469,4.5145 0.0729,4.6272 l 0.0467,0.2051 1.73512,-0.024 1.73513,-0.025 0.0483,-4.5124 c 0.0472,-4.444 0.0507,-4.5214 0.25976,-5.119 0.37633,-1.076 1.04804,-1.6462 2.06615,-1.7526 1.14747,-0.1199 2.03988,0.4121 2.46607,1.4691 0.21258,0.5271 0.21402,0.5476 0.25896,5.222 l 0.0452,4.6929 1.78184,0.025 1.78264,0.024 -0.002,-5.0786 c -0.002,-5.5821 -0.0178,-5.7896 -0.54247,-6.889 -0.1697,-0.3556 -0.51483,-0.8394 -0.86083,-1.2061 -0.94634,-1.0032 -2.09607,-1.4481 -3.7395,-1.4477 -1.87949,4e-4 -3.25575,0.6073 -4.12518,1.8175 -0.17237,0.2399 -0.36075,0.4344 -0.41814,0.4332 -0.0574,0 -0.20535,-0.1678 -0.32944,-0.3707 -0.12409,-0.2028 -0.4272,-0.5508 -0.67314,-0.7729 -0.84182,-0.76 -1.82501,-1.1103 -3.11784,-1.1103 z m 23.28438,-0.039 c -1.09991,0 -1.42313,0.03 -2.02656,0.2035 -2.35446,0.6766 -4.12876,2.5148 -4.84978,5.0248 -0.28236,0.983 -0.30345,3.4364 -0.038,4.4222 0.58801,2.1837 2.04738,3.9602 3.96441,4.826 0.52344,0.2364 1.50778,0.4922 2.22771,0.5781 0.5243,0.063 1.81563,-0.035 2.39163,-0.1813 0.80426,-0.204 1.59569,-0.6259 2.1992,-1.1721 0.29525,-0.2672 0.5587,-0.4862 0.58603,-0.4862 0.0273,0 0.0615,0.3153 0.076,0.7 l 0.0269,0.6993 1.71453,0 1.71454,0 0.023,-7.0791 c 0.0183,-5.6033 -4.1e-4,-7.0933 -0.0903,-7.1503 -0.13162,-0.084 -3.1422,-0.1021 -3.35463,-0.021 -0.11109,0.043 -0.14254,0.1931 -0.14254,0.6771 0,0.7266 -0.0751,0.7679 -0.54169,0.2985 -0.46801,-0.4707 -1.04062,-0.8067 -1.84995,-1.0865 -0.65679,-0.227 -0.84008,-0.2506 -2.03051,-0.2534 z"
           style="fill:#000000"
           id="path4184" />
        <path
           style="fill:#3592d7"
           d="m 23.455636,1017.5732 0,16.918 c 0,0 -0.174007,3.9746 3.859375,4.9277 1.266977,0.3138 2.52932,0.6803 3.720703,1.2324 0.51722,0.2383 1.743027,0.7908 1.847656,1.5 0.04072,-0.5117 0.755014,-0.9117 1.132813,-1.1269 1.383203,-0.7727 2.910988,-1.2277 4.439453,-1.6055 4.033378,-0.9531 3.859378,-4.9277 3.859378,-4.9277 l 0,-16.918 z m 9.412109,3.0039 7.144529,0 0,12.0243 c 0,0 0.13179,3.0043 -2.916013,3.7246 -1.154983,0.2854 -2.310258,0.627 -3.355469,1.211 -0.285482,0.1625 -0.826652,0.467 -0.857422,0.8535 -0.0024,-0.016 -0.01178,-0.031 -0.01563,-0.047 z"
           id="path4797" />
        <path
           d="m 177.50193,1034.479 -1.55868,0 0,2.486 -2.92005,0 0,-2.486 -6.41229,0 0,-2.4662 6.31363,-9.2534 3.01871,0 0,9.135 1.55868,0 0,2.5846 z m -4.47873,-2.5846 0,-5.1496 -3.19628,5.1496 3.19628,0 z"
           id="path4845" />
        <path
           d="m 194.73987,1032.802 q 0,2.1308 -1.34164,3.2949 -1.32192,1.1444 -3.49223,1.1444 -2.26896,0 -3.59088,-1.2825 -1.30219,-1.2825 -1.30219,-3.5514 l 3.23574,0 q 0,0.8089 0.3946,1.4008 0.45379,0.6511 1.22327,0.6511 0.73001,0 1.16407,-0.4735 0.4538,-0.4933 0.4538,-1.2233 0,-0.2565 -0.0789,-0.4538 -0.23676,-0.5721 -1.87436,-1.4008 -2.07166,-1.026 -2.78195,-1.5981 -1.4403,-1.1839 -1.4403,-2.782 0,-1.8941 1.46003,-3.0187 1.32192,-1.026 3.2752,-1.026 1.97301,0 3.21601,1.1247 1.26272,1.1838 1.26272,3.137 l -3.15681,0 q 0,-0.7102 -0.37488,-1.164 -0.35514,-0.4538 -1.04569,-0.4538 -0.5919,0 -0.98651,0.2959 -0.45379,0.3157 -0.45379,0.8879 0,0.8681 1.38111,1.7165 1.36138,0.73 2.72275,1.4798 1.59814,0.9667 1.95328,2.0322 0.17757,0.5327 0.17757,1.2627 z"
           style="fill:#000000"
           id="path4847" />
        <path
           d="m 209.2005,1036.965 -3.53169,0 -0.90759,-2.5649 -5.09036,0 -0.94705,2.5649 -3.4725,0 5.66254,-14.2056 2.64384,0 5.64281,14.2056 z m -5.32713,-5.2087 -1.61787,-5.0904 -1.65733,5.0904 3.2752,0 z"
           style="fill:#000000"
           id="path4849" />
        <path
           d="m 217.98193,1025.6005 -4.32089,0 0,2.8806 4.22224,0 0,2.8609 -4.22224,0 0,5.623 -3.23573,0 0,-14.2056 7.55662,0 0,2.8411 z"
           style="fill:#000000"
           id="path4851" />
        <path
           d="m 227.8328,1036.965 -7.75393,0 0,-14.2056 7.75393,0 0,2.8411 -4.51819,0 0,2.703 4.41954,0 0,2.8806 -4.41954,0 0,2.8806 4.51819,0 0,2.9003 z"
           style="fill:#000000"
           id="path4853" />
        <path
           d="m 237.9488,1025.6202 -2.80168,0 0,11.3448 -3.23573,0 0,-11.3448 -2.80168,0 0,-2.8608 8.83909,0 0,2.8608 z"
           style="fill:#000000"
           id="path4855" />
        <path
           d="m 249.92004,1022.7595 -4.24197,9.0166 0,5.189 -3.23574,0 0,-5.189 -4.2617,-9.0166 3.51196,0 2.34788,5.9782 0.0197,-0.02 2.36761,-5.9584 3.49223,0 z"
           style="fill:#000000"
           id="path4857" />
      </g>
    </g>
  </g>
</svg>
