<?xml version="1.0" encoding="UTF-8" standalone="no"?>
<svg
   xmlns:dc="http://purl.org/dc/elements/1.1/"
   xmlns:cc="http://creativecommons.org/ns#"
   xmlns:rdf="http://www.w3.org/1999/02/22-rdf-syntax-ns#"
   xmlns:svg="http://www.w3.org/2000/svg"
   xmlns="http://www.w3.org/2000/svg"
   version="1.1"
   id="svg4159"
   viewBox="0 0 290 45.000001"
   height="45"
   width="290">
  <defs
     id="defs4161" />
  <metadata
     id="metadata4164">
    <rdf:RDF>
      <cc:Work
         rdf:about="">
        <dc:format>image/svg+xml</dc:format>
        <dc:type
           rdf:resource="http://purl.org/dc/dcmitype/StillImage" />
        <dc:title></dc:title>
      </cc:Work>
    </rdf:RDF>
  </metadata>
  <g
     transform="translate(0,-1007.3622)"
     id="layer1">
    <g
       transform="matrix(0.40546911,0,0,0.40546911,-3.1208413,862.69613)"
       id="layer1-3">
      <g
         id="g4220">
        <path
           id="path4184"
           style="fill:#000000"
           d="m 494.33789,401.59766 c 5.94573,-0.28291 10.95789,4.95081 10.53906,11.38672 -0.14721,2.26156 -0.74121,3.85098 -2.11133,5.65234 -1.26345,1.66115 -2.9478,2.97135 -4.62695,3.59961 -1.43487,0.53683 -3.81479,0.74744 -5.18359,0.45898 -1.61649,-0.34066 -3.31749,-1.25205 -4.5957,-2.46093 -2.4423,-2.30979 -3.45704,-4.6793 -3.45704,-8.08204 0,-3.4832 1.02773,-5.89855 3.45313,-8.11523 1.46083,-1.33511 2.75628,-1.9594 4.78125,-2.30664 0.40334,-0.0692 0.80479,-0.11395 1.20117,-0.13281 z m -96.24023,-2.00196 c 5.40025,-0.12777 8.03274,0.82301 9.42382,3.4043 0.68499,1.2712 0.69305,4.66689 0.0137,6.12109 -0.80601,1.72524 -2.01841,2.6652 -4.20704,3.26758 -0.61207,0.16847 -2.56563,0.36866 -4.34179,0.44336 -2.72735,0.11477 -3.27162,0.0834 -3.50781,-0.20117 -0.21353,-0.25693 -0.26581,-1.83871 -0.22071,-6.6543 l 0.0586,-6.3164 2.78125,-0.0645 z m -114.25977,-0.008 c 2.19529,-0.0706 6.37614,0.16015 7.84961,0.51758 2.18696,0.53051 4.11434,1.55856 5.70117,3.04297 2.45281,2.29448 3.44336,4.97521 3.44336,9.31054 0,4.26916 -0.88496,6.70528 -3.32226,9.14258 -1.52178,1.52178 -3.06257,2.42213 -5.16407,3.01953 -1.65886,0.47157 -9.53354,0.69304 -9.93164,0.2793 -0.21572,-0.22419 -0.27734,-3.04795 -0.27734,-12.57031 0,-10.76856 0.0423,-12.31586 0.3418,-12.56446 0.11655,-0.0967 0.62761,-0.1542 1.35937,-0.17773 z m 82.77149,-0.42383 c 0.29864,-0.0101 0.59655,-0.009 0.89453,0.004 3.97295,0.16585 7.83762,2.32393 10.31836,6.16211 1.35569,2.09753 1.90131,4.06785 1.88281,6.79492 -0.009,1.36075 -0.16444,2.78733 -0.40039,3.67188 -1.17638,4.40966 -4.58173,7.98041 -8.79102,9.21679 -0.76286,0.22408 -2.03508,0.35361 -3.44922,0.34961 -2.46934,-0.006 -4.2366,-0.46811 -6.1914,-1.61719 -2.33963,-1.37528 -4.78232,-4.4074 -5.73633,-7.11914 -0.60681,-1.72484 -0.83816,-5.48349 -0.45117,-7.34765 0.59993,-2.88991 3.14876,-6.47136 5.82617,-8.18946 1.91261,-1.22731 4.00711,-1.85484 6.09766,-1.92578 z m -39.2754,-0.008 c 1.42469,-0.0411 2.87838,0.1783 4.30274,0.69531 1.99288,0.72338 3.43025,1.69934 5.07422,3.44532 2.45973,2.61225 3.51967,5.28613 3.51367,8.85937 -0.004,2.43637 -0.42791,4.3043 -1.42383,6.25781 -1.72661,3.38681 -4.54055,5.7592 -7.84961,6.6211 -1.40655,0.36635 -4.98937,0.41353 -6.39453,0.084 -3.28369,-0.77013 -7.08762,-4.14907 -8.57422,-7.61719 -0.74009,-1.72656 -1.20147,-4.48305 -1.05078,-6.26562 0.57828,-6.84121 6.22869,-11.90185 12.40234,-12.08008 z m 62.64063,-4.61523 -0.0586,17.47265 c -0.0316,9.60972 -0.01,17.59698 0.0488,17.75 0.0765,0.20032 0.824,0.2793 2.66993,0.2793 l 2.56445,0 0.0586,-7.60547 c 0.0372,-4.82737 0.13996,-7.62882 0.28125,-7.66992 0.12242,-0.0356 2.63781,3.36124 5.58985,7.54883 l 5.36718,7.61523 3.25782,0.0605 c 2.5292,0.0478 3.256,-0.002 3.25,-0.22266 -0.004,-0.1563 -2.05716,-3.07923 -4.5625,-6.49609 -2.50533,-3.41686 -4.55664,-6.33436 -4.55664,-6.48242 0,-0.15432 0.46716,-0.33097 1.09375,-0.41407 2.64456,-0.35082 5.91337,-2.83175 7.27734,-5.52343 1.55189,-3.06251 1.48665,-7.36395 -0.16211,-10.67383 -1.24613,-2.50166 -3.86324,-4.39634 -7.2207,-5.22852 -1.27942,-0.31707 -2.68649,-0.38548 -8.22071,-0.39648 l -6.67773,-0.0137 z m -112.8457,0 -0.0566,17.76953 -0.0586,17.76757 7.40235,-0.0898 c 8.45091,-0.10365 9.26865,-0.23396 12.96679,-2.05469 5.57745,-2.74597 8.52362,-7.44284 8.9375,-14.25 0.35174,-5.7853 -1.33377,-10.6697 -4.91992,-14.25586 -2.27893,-2.27893 -4.76345,-3.6282 -8.24609,-4.48046 -1.30233,-0.31875 -2.74646,-0.38454 -8.79297,-0.39454 l -7.23242,-0.0117 z m 89.62695,-0.73829 c -2.64452,0.0607 -5.24332,0.65973 -7.45898,1.77539 -3.95158,1.98985 -7.16597,5.28092 -8.91602,9.12696 -2.29718,5.04845 -2.07916,11.25076 0.57031,16.21094 2.87991,5.39161 7.92903,9.00825 13.65039,9.77734 9.23247,1.24108 17.69741,-4.49747 20.16992,-13.67188 0.67436,-2.5023 0.68435,-7.26031 0.0195,-9.71289 -1.52071,-5.60987 -6.25345,-10.74226 -11.5586,-12.53711 -1.70845,-0.57801 -3.52402,-0.89702 -5.3418,-0.96093 -0.37869,-0.0133 -0.75697,-0.0165 -1.13476,-0.008 z m -39.40039,-0.01 c -3.04828,0.0456 -6.09558,0.8452 -8.79883,2.45117 -1.84736,1.09751 -4.71791,3.78148 -6.07031,5.67578 -3.97495,5.5677 -4.22254,13.5871 -0.60938,19.77539 1.32167,2.26364 4.48927,5.474 6.65039,6.74024 1.85553,1.08718 4.39433,1.97037 6.49024,2.25781 2.00904,0.27553 5.30091,0.0845 7.27734,-0.42188 3.38171,-0.86643 5.84056,-2.36126 8.52149,-5.18359 3.42751,-3.60828 5.0039,-7.71647 5.0039,-13.04687 0,-4.8348 -1.54421,-8.84008 -4.78906,-12.42579 -3.51038,-3.87913 -8.59532,-5.89822 -13.67578,-5.82226 z m 211.87891,-0.0312 c -3.59758,0 -6.14725,0.89093 -8.2793,2.89258 -0.65278,0.61287 -1.26483,1.11523 -1.36133,1.11523 -0.0965,0 -0.17578,-0.69141 -0.17578,-1.53515 0,-1.19368 -0.0776,-1.56481 -0.35156,-1.66993 -0.19364,-0.0743 -1.98911,-0.13476 -3.99024,-0.13476 -3.01085,0 -3.69885,0.0602 -3.98828,0.34961 -0.31187,0.31185 -0.34961,2.19238 -0.34961,17.34375 0,9.34613 0.0614,17.15343 0.13672,17.34961 0.12022,0.31332 0.66855,0.34977 4.50781,0.29687 l 4.36914,-0.0605 0.11914,-10.79492 c 0.1151,-10.35973 0.14132,-10.85512 0.61133,-12.26172 1.17125,-3.50519 3.52297,-5.106 7.08203,-4.82031 2.65222,0.2129 4.50483,1.67704 5.36328,4.23828 0.34195,1.02018 0.40186,2.50203 0.50586,12.39844 l 0.11914,11.24023 4.33985,0 4.33984,0 0,-12.6875 c 0,-14.20344 0.0211,-13.97897 -1.63281,-17.13671 -2.09008,-3.99046 -6.04656,-6.12305 -11.36523,-6.12305 z m -102.85352,0 c -3.26929,0 -5.64941,0.87553 -7.8457,2.88281 -0.67692,0.61867 -1.29064,1.125 -1.36524,1.125 -0.0746,0 -0.13672,-0.63111 -0.13672,-1.40234 0,-0.79385 -0.11633,-1.51871 -0.26758,-1.66992 -0.18578,-0.18579 -1.36626,-0.26758 -3.8789,-0.26758 -2.98695,0 -3.6717,0.0604 -3.96094,0.34961 -0.31186,0.31185 -0.34961,2.19238 -0.34961,17.34375 0,9.34613 0.0614,17.15338 0.13672,17.34961 0.12016,0.31313 0.65686,0.34987 4.39453,0.29687 l 4.25977,-0.0605 0.125,-10.90625 c 0.10726,-9.4374 0.17585,-11.08658 0.50976,-12.24218 0.57231,-1.98066 1.62869,-3.43947 3.06055,-4.22461 1.04588,-0.57348 1.43273,-0.65811 2.98242,-0.66211 1.41547,-0.003 1.97022,0.0952 2.70508,0.48633 1.22352,0.65118 2.17827,1.84886 2.79102,3.49804 0.49029,1.31968 0.502,1.57029 0.5625,12.25391 0.034,5.99842 0.11558,11.13404 0.17968,11.41211 l 0.11524,0.50586 4.27929,-0.0606 4.2793,-0.0605 0.11914,-11.1289 c 0.11627,-10.96016 0.12508,-11.15094 0.64063,-12.625 0.92814,-2.65372 2.58476,-4.05983 5.0957,-4.32227 2.82999,-0.2958 5.03091,1.01624 6.08203,3.62305 0.52428,1.30021 0.52783,1.35066 0.63867,12.87891 l 0.11133,11.57421 4.39453,0.0605 4.39649,0.0606 -0.004,-12.52539 c -0.004,-13.76692 -0.0438,-14.27868 -1.33789,-16.99024 -0.41851,-0.87694 -1.26971,-2.07001 -2.12305,-2.97461 -2.33393,-2.47409 -5.16948,-3.57131 -9.22265,-3.57031 -4.63533,0.001 -8.02958,1.49779 -10.17383,4.48242 -0.42512,0.59175 -0.88972,1.07136 -1.03125,1.06836 -0.14154,-0.003 -0.50646,-0.41379 -0.8125,-0.91406 -0.30605,-0.50027 -1.0536,-1.35862 -1.66016,-1.90625 -2.07615,-1.87443 -4.50098,-2.73828 -7.68945,-2.73828 z m 57.42578,-0.0957 c -2.71269,-0.007 -3.50982,0.0743 -4.99805,0.50195 -5.80676,1.66848 -10.18267,6.20213 -11.96093,12.39258 -0.69636,2.42435 -0.74838,8.47507 -0.0937,10.90625 1.45018,5.38567 5.04941,9.76695 9.77734,11.90234 1.29095,0.58308 3.71859,1.21373 5.49414,1.42578 1.29309,0.15444 4.47787,-0.0869 5.89844,-0.44726 1.98352,-0.50318 3.93542,-1.54368 5.42383,-2.89063 0.72818,-0.65896 1.37791,-1.19922 1.44531,-1.19922 0.0674,0 0.1517,0.77776 0.1875,1.72657 l 0.0664,1.7246 4.22851,0 4.22852,0 0.0566,-17.45898 c 0.0451,-13.81937 -0.001,-17.49426 -0.22266,-17.63477 -0.32461,-0.20607 -7.74953,-0.25183 -8.27344,-0.0508 -0.27398,0.10512 -0.35156,0.47625 -0.35156,1.66993 0,1.79207 -0.18526,1.89384 -1.33594,0.73632 -1.15426,-1.16111 -2.56647,-1.98976 -4.5625,-2.67968 -1.61982,-0.55988 -2.07186,-0.618 -5.00781,-0.625 z" />
        <path
           id="path4149"
           style="fill:#3592d7;fill-opacity:1"
           d="m 231.48438,436.08398 c 0.27305,0.005 0.3496,0.10708 0.3496,0.28711 0,0.17535 -0.29308,1.45242 -0.65234,2.83789 -2.40759,9.28477 -5.96767,15.55897 -9.82031,17.30664 -4.24442,1.92548 -8.95617,-2.66596 -12.22266,-11.91015 -0.95132,-2.69224 -2.29381,-7.84926 -2.14453,-8.23828 0.17941,-0.46755 0.62156,-0.40173 3.91797,0.58008 3.95297,1.17736 6.37414,2.36417 7.55273,3.70312 l 0.90821,1.03125 1.06445,-1.10937 c 1.38197,-1.44137 3.53065,-2.48237 7.48047,-3.625 2.11047,-0.61054 3.11131,-0.87135 3.56641,-0.86329 z m 15.16015,-22.5332 c 0.0448,0.001 0.0836,0.0113 0.11719,0.0293 0.19667,0.10525 1.73386,1.61346 3.41601,3.35156 2.07099,2.13986 3.02041,3.27588 2.94141,3.51758 -0.0642,0.19633 -0.27915,0.81964 -0.47852,1.38476 -0.29054,0.82355 -0.31535,1.20381 -0.12304,1.91797 0.47821,1.77596 1.67931,2.7029 3.79883,2.93164 l 1.22461,0.13086 0.5371,1.33594 c 0.37411,0.92708 0.56852,1.91318 0.63282,3.22656 0.082,1.67653 0.0319,2.00695 -0.44336,2.89453 -0.70128,1.30967 -2.05736,2.32191 -3.90625,2.91602 -1.18448,0.38062 -2.1603,0.49325 -4.72071,0.54688 -1.77503,0.0371 -3.87811,-0.0211 -4.67382,-0.13086 -3.52566,-0.48637 -10.25543,-2.15333 -10.39453,-2.57422 -0.0367,-0.111 0.50931,-0.49874 1.21289,-0.86133 0.70358,-0.36258 1.93117,-1.3129 2.72851,-2.11328 2.75169,-2.76214 3.50953,-5.06503 3.71485,-11.28711 l 0.13476,-4.04492 2.01953,-1.66602 c 1.3288,-1.09643 1.9478,-1.51487 2.26172,-1.50586 z m -54.32031,-0.002 c 0.30059,10e-4 0.92655,0.41368 2.09961,1.37109 1.02934,0.84011 1.95434,1.6562 2.05469,1.81446 0.10036,0.15818 0.18354,1.85613 0.18554,3.77343 0.004,4.16919 0.36578,6.32663 1.44336,8.59571 0.93912,1.97752 2.68409,3.78517 4.85742,5.03515 1.01123,0.5816 1.43841,0.94441 1.28907,1.09375 -0.27217,0.27217 -6.57508,1.91273 -7.39063,1.92383 -0.42316,0.006 -0.72921,-0.20598 -1.11328,-0.77344 -0.6235,-0.92123 -2.02086,-1.66601 -3.125,-1.66601 -1.23589,0 -2.64135,0.86966 -3.24219,2.00586 -0.28514,0.5392 -0.63928,1.05714 -0.78906,1.15234 -0.14978,0.0951 -0.32357,0.16264 -0.38477,0.14844 -0.0612,-0.0142 -0.66264,-0.0976 -1.33593,-0.18555 -5.28452,-0.68952 -7.67165,-3.48333 -6.68555,-7.82422 0.4358,-1.9184 2.30064,-5.51466 4.13867,-7.98437 1.56398,-2.1015 7.09697,-8.03332 7.88867,-8.45703 0.0303,-0.0162 0.0664,-0.0236 0.10938,-0.0234 z m 4.16797,-3.35742 c 0.10675,0.10678 0.1648,1.02756 0.1289,2.04687 -0.0359,1.0193 -0.16469,1.88402 -0.28711,1.91992 -0.29789,0.0873 -2.33789,-1.67317 -2.33789,-2.01758 0,-0.40496 2.26873,-2.17658 2.4961,-1.94921 z m 45.99609,-0.18164 c 0.33341,0 2.47852,1.84779 2.47852,2.13476 0,0.15058 -0.47712,0.66622 -1.0586,1.14649 -1.70027,1.40435 -1.61328,1.46045 -1.61328,-1.04102 0,-1.23139 0.0874,-2.24023 0.19336,-2.24023 z m -23.11914,-15.35743 c 1.79405,0 3.16947,0.54549 4.54297,1.80078 2.30087,2.10286 2.86532,5.07796 1.49219,7.86719 -0.66707,1.35501 -1.23391,1.99998 -2.46875,2.81446 l -0.53321,0.35351 1.82227,7.00391 c 1.00251,3.85276 1.82227,7.17522 1.82227,7.38281 0,0.34655 -0.54808,0.37695 -6.67774,0.37695 -4.91733,0 -6.67578,-0.0677 -6.67578,-0.25781 0,-0.14201 0.79996,-3.33021 1.7793,-7.08594 0.97933,-3.75573 1.78125,-6.9814 1.78125,-7.16797 0,-0.18657 -0.39322,-0.61279 -0.87305,-0.94531 -1.69119,-1.172 -2.6614,-3.11847 -2.67774,-5.36914 -0.0147,-2.02677 0.52519,-3.33573 1.97657,-4.78711 1.42783,-1.42783 2.74616,-1.98633 4.68945,-1.98633 z m 28.63867,-7.96679 c 0.7584,-0.0179 1.50227,-0.0185 2.16211,0.006 3.18973,0.11785 4.80779,0.53437 6.42383,1.65429 4.58107,3.17468 1.56122,11.19397 -7.66992,20.36719 -1.21109,1.20349 -2.28821,2.1875 -2.39258,2.1875 -0.10437,0 -1.09995,-0.7589 -2.21289,-1.6875 l -2.02344,-1.68945 0,-10.08399 c 0,-8.99293 0.0394,-10.09819 0.35352,-10.21875 0.67686,-0.25974 3.08417,-0.48142 5.35937,-0.53515 z m -58.35156,-0.25586 c 1.78793,-0.003 6.38486,0.51731 6.79297,0.76953 0.13745,0.0849 0.21875,3.87373 0.21875,10.23047 l 0,10.09375 -2.02344,1.68945 c -1.11294,0.9286 -2.1125,1.6875 -2.2207,1.6875 -0.3193,0 -4.66599,-4.40504 -6.36914,-6.45508 -7.0086,-8.43609 -7.84729,-14.67052 -2.29688,-17.06445 1.17637,-0.50737 3.90232,-0.94717 5.89844,-0.95117 z M 219.5957,367.5918 c 0.27307,0.0105 0.54141,0.046 0.80078,0.11132 1.36397,0.34346 2.40966,1.0471 3.88086,2.60547 1.40005,1.483 2.51096,3.22798 3.76172,5.91407 0.91499,1.96499 2.23633,5.56863 2.23633,6.0957 0,0.26883 -1.63214,0.31445 -10.90625,0.31445 l -10.90625,0 0.0117,-0.5 c 0.006,-0.27544 0.24239,-1.1015 0.52344,-1.83593 l 0.50976,-1.33594 1.15039,-0.14258 c 1.31623,-0.16368 2.50747,-0.94999 3.06055,-2.01953 0.50649,-0.97943 0.33626,-2.98452 -0.33398,-3.92578 l -0.51172,-0.7168 0.95117,-1.23242 c 1.67077,-2.16563 3.86005,-3.40553 5.77148,-3.33203 z m -0.33789,-1.53321 c -1.51283,0.006 -1.9619,0.10102 -2.98633,0.63477 -1.34927,0.70298 -3.22045,2.37836 -4.14257,3.70898 -0.5412,0.78095 -0.71249,0.88077 -1.52539,0.88477 -3.39688,0.0181 -5.16866,3.48157 -3.16797,6.19336 l 0.54101,0.73242 -0.72265,2.1543 -0.72071,2.15625 -4.87695,0.11133 -4.87695,0.10937 -0.11133,1.22461 -0.11133,1.22461 -1.00195,-0.043 c -7.76062,-0.32935 -8.37952,-0.32898 -9.97852,0.0117 -6.34995,1.35302 -8.58728,5.68449 -6.13672,11.88086 1.39335,3.52316 4.30635,7.57202 8.69336,12.08203 l 2.92969,3.00977 -2.99023,3.07812 c -3.20126,3.29705 -5.86524,6.66605 -7.41407,9.37305 -3.6028,6.29689 -2.89202,11.49385 1.875,13.72461 1.38717,0.64914 4.18904,1.30273 5.58203,1.30273 0.63458,0 0.85001,0.14261 1.33985,0.88281 0.65034,0.98273 2.0697,1.78711 3.15039,1.78711 1.46308,0 2.94129,-1.0007 3.53906,-2.39843 0.17193,-0.40202 0.53459,-0.81776 0.80664,-0.92383 0.80789,-0.31499 7.12593,-1.85584 7.72071,-1.88282 0.51602,-0.0233 0.59124,0.13221 1.26367,2.6211 2.81538,10.42059 6.70127,16.88093 11.14257,18.52344 1.29637,0.47942 3.93937,0.3118 5.25977,-0.33399 4.12518,-2.01756 7.82404,-8.43632 10.35938,-17.97265 0.71225,-2.67899 0.8775,-3.08109 1.25781,-3.05469 0.2409,0.0167 1.99121,0.43524 3.88867,0.92969 4.56651,1.18996 7.69578,1.64348 11.35156,1.64648 4.5245,0.004 7.0992,-0.73261 9.10352,-2.60742 2.42327,-2.26669 2.83179,-5.5498 1.19726,-9.63281 l -0.58593,-1.45899 0.48437,-0.8418 c 0.57712,-1.00277 0.64881,-2.79194 0.15039,-3.75586 -0.1835,-0.35484 -0.70062,-0.92656 -1.15039,-1.26953 -0.70633,-0.53858 -1.0246,-0.62481 -2.33203,-0.63281 l -1.51367,-0.008 -1.97461,-2.2168 c -1.08631,-1.21923 -2.60003,-2.80006 -3.36328,-3.51172 l -1.38867,-1.29297 2.74609,-2.82421 c 4.52978,-4.65725 7.50101,-8.78994 8.88476,-12.35938 0.9004,-2.32259 1.12473,-5.05723 0.55469,-6.77344 -1.30929,-3.9419 -6.614,-5.92394 -13.8789,-5.1875 -1.38067,0.13996 -2.80811,0.31392 -3.17188,0.38672 l -0.66211,0.13086 0,-1.22461 c 0,-0.74657 -0.11475,-1.31922 -0.29492,-1.46875 -0.18963,-0.15737 -2.00447,-0.26804 -5.0625,-0.30664 l -4.76562,-0.0586 -1.02149,-2.89453 c -2.42897,-6.88828 -5.41065,-11.28007 -8.77539,-12.92383 -1.14363,-0.55871 -1.59234,-0.65249 -3.11719,-0.64649 z" />
      </g>
    </g>
  </g>
</svg>
